<?xml version="1.0" encoding="utf-8"?>
<!-- Generator: Adobe Illustrator 16.0.0, SVG Export Plug-In . SVG Version: 6.00 Build 0)  -->
<!DOCTYPE svg PUBLIC "-//W3C//DTD SVG 1.1//EN" "http://www.w3.org/Graphics/SVG/1.1/DTD/svg11.dtd">
<svg version="1.1" id="Layer_1" xmlns="http://www.w3.org/2000/svg" xmlns:xlink="http://www.w3.org/1999/xlink" x="0px" y="0px"
	 width="131px" height="102.311px" viewBox="-5 -8.811 131 102.311" enable-background="new -5 -8.811 131 102.311"
	 xml:space="preserve">
<g id="Layer_1_1_" display="none">
	<g display="inline">
		<path opacity="0.4" enable-background="new    " d="M40.085,59.811c-1.789,0.246-3.137,0.25-4.426-1.343
			c-2.493-3.075-5.758-4.731-9.889-3.702c-2.079,0.52-3.809,1.733-4.829,3.53c-1.009,1.776-2.324,2.071-4.324,1.688
			c-0.156-7.941,1.091-15.738,3.465-23.363c4.21-13.523,11.615-25.017,22.04-34.565c1.941,1.242,2.221,1.879,1.798,3.969
			c-1.298,6.429,2.781,11.237,9.739,11.063c2.09-0.052,3.246,0.663,4.291,2.355C46.339,30.316,40.351,43.805,40.085,59.811z"/>
		<path fill="#ED1C24" d="M40.81,7.449c1.07,1.259,2.114,2.398,3.034,3.63c0.252,0.338,0.31,1.017,0.16,1.431
			c-2.285,6.323,1.144,11.363,7.891,11.183c2-0.053,3.289,0.411,4.318,2.024c0.452,0.708,1.066,1.313,1.737,2.124
			c-6.101,5.28-10.9,11.546-14.164,18.938c-3.244,7.346-4.702,15.052-4.496,23.179c-1.698,0.106-3.276,0.267-4.855,0.263
			c-0.421-0.002-0.958-0.41-1.241-0.785c-1.416-1.871-3.083-3.391-5.361-4.115c-3.452-1.096-6.935,0.404-8.847,4.021
			c-0.659,1.244-1.392,1.613-2.745,1.604c-3.823-0.021-3.889,0.048-3.781-3.758C13.124,43.764,22.021,24.12,39.5,8.432
			c0.26-0.233,0.529-0.456,0.802-0.673C40.417,7.668,40.552,7.604,40.81,7.449z M37.631,68.188
			c0.266-16.004,6.254-29.492,17.866-40.367c-1.044-1.692-2.2-2.407-4.29-2.355c-6.959,0.173-11.038-4.635-9.739-11.063
			c0.422-2.09,0.143-2.727-1.798-3.969c-10.425,9.548-17.83,21.042-22.041,34.565c-2.374,7.626-3.621,15.423-3.465,23.362
			c2,0.385,3.315,0.091,4.324-1.688c1.02-1.796,2.75-3.014,4.829-3.53c4.131-1.025,7.396,0.627,9.889,3.705
			C34.494,68.438,35.842,68.436,37.631,68.188z"/>
		<path d="M76.964,41.66c0.817-0.463,2-0.42,3.013,0.363c1.012,0.785,0.611,1.867,0.279,2.879c-0.163,0.5-0.255,1.021-0.402,1.625
			c1.738-0.37,3.562-0.811,4.469,0.992c1.229,2.438-0.895,3.646-2.406,5.098c1.414,0.604,1.516,1.65,1.207,2.941
			c-0.107,0.45,0.185,1,0.484,1.563c-0.442,1.154-1.462,1.197-2.559,0.85c-0.928-0.297-1.519-0.824-1.312-1.986
			c0.075-0.426-0.388-1.354-0.498-1.34c-0.664,0.102-1.384,0.291-1.908,0.688c-0.32,0.242-0.354,0.896-0.463,1.379
			c-0.27,1.185-1.216,1.399-2.062,1.071c-0.486-0.188-1.069-1.16-0.972-1.652c0.542-2.719,1.258-5.402,1.959-8.088
			c0.338-1.294,0.844-2.546,1.142-3.85C77.092,43.514,76.964,42.77,76.964,41.66z M78.152,52.189
			c1.746-0.32,2.927-0.994,2.929-2.666c0.001-0.33-0.196-0.871-0.421-0.941c-0.273-0.087-0.851,0.122-0.986,0.371
			C79.103,49.998,78.649,51.105,78.152,52.189z"/>
		<path d="M49.874,54.943c-0.052,1.013,0.743,1.93,1.464,0.793c0.764-1.205,1.176-2.622,1.576-3.992
			c0.75-2.569,1.336-5.186,2.071-7.76c0.296-1.035,0.805-2.01,1.213-3.006c-2.389-0.595-4.336,1.145-4.39,4.285
			c-0.714-0.106-1.708,0.021-1.992-0.367c-0.375-0.517-0.408-1.498-0.211-2.168c0.53-1.805,2.118-2.484,3.763-2.748
			c1.756-0.28,3.56-0.301,5.345-0.348c2.125-0.054,4.251-0.013,6.533,0.172c-0.6,0.231-1.222,0.711-1.796,0.656
			c-3.157-0.288-4.401,1.615-5.13,4.223c-0.575,2.055-1.116,4.117-1.79,6.141c-0.484,1.451-1.053,2.896-1.778,4.238
			c-1.121,2.078-2.993,3.047-5.333,2.799c-2.717,0.037-1.864-3.579-1.246-4.155c0.993-0.927,1.521-0.3,2.023-0.226
			C50.253,53.623,49.894,54.555,49.874,54.943z"/>
		<path d="M72.374,55.859c0.083,1.356-0.837,1.729-1.758,1.938c-0.814,0.184-1.686,0.211-2.525,0.169
			c-3.384-0.168-4.433-1.418-4.069-4.752c0.469-4.298,4.302-7.733,8.16-7.313c1.289,0.143,2.021,0.729,1.761,2.149
			c-3.266-0.296-6.485,3.571-5.706,6.802c0.275,1.139,1.117,1.475,2.15,1.399C71.016,56.209,71.635,56.014,72.374,55.859z"/>
		<path d="M101.68,45.677c0.502,0.218,1.676,0.273,1.451,0.972c-2.057,0.27-2.354,1.514-2.73,2.771
			c-0.51,1.708-0.688,3.499-1.028,5.249c-0.283,1.462-0.088,1.723,1.271,2.288c-0.694,1.301-1.848,0.89-2.848,0.753
			c-1.09-0.146-1.566-1.354-1.396-2.545c0.354-2.393,0.664-4.219,1.086-6.602c0.105-0.599,0.906-3.594,1.576-4.494
			c0.371-0.5,0.849-1.031,1.396-1.26c0.479-0.199,1.58-0.021,2.151,0.008l-0.455,1.502C102.152,44.318,101.826,45.186,101.68,45.677
			z"/>
		<path d="M58.958,46.145c0.989-0.486,2.463-0.686,3.436,0.279c0.605,0.602,0.737,2.024,0.567,2.987
			c-0.342,1.938-1.038,3.815-1.58,5.722c-0.229,0.805-0.488,1.637,0.881,1.629c-0.738,1.116-2.412,1.563-3.722,1.034
			c-1.306-0.522-1.36-1.653-1.095-2.756c0.51-2.116,1.204-4.188,1.691-6.31C59.295,48.038,59.049,47.252,58.958,46.145z"/>
		<path d="M61.778,44.753c-0.977-0.03-1.823-0.233-1.778-1.479c0.04-1.1,0.956-1.932,2.056-1.896
			c1.071,0.035,1.974,0.451,1.887,1.626C63.854,44.184,63.055,44.854,61.778,44.753z"/>
		<path fill="#FFFFFF" d="M37.631,68.188c-1.789,0.248-3.137,0.252-4.426-1.34c-2.492-3.078-5.757-4.729-9.889-3.705
			c-2.079,0.521-3.809,1.735-4.829,3.531c-1.009,1.777-2.324,2.071-4.324,1.688C14.007,60.423,15.254,52.626,17.628,45
			c4.21-13.522,11.615-25.017,22.041-34.565c1.941,1.242,2.22,1.879,1.798,3.969c-1.298,6.429,2.78,11.237,9.739,11.063
			c2.09-0.052,3.246,0.663,4.29,2.355C43.885,38.695,37.897,52.184,37.631,68.188z"/>
		<polygon fill="#ED1C24" points="30.901,33.53 35.516,33.47 37.673,37.55 39.042,33.143 43.588,32.352 39.82,29.688 40.473,25.12 
			36.775,27.881 32.632,25.848 34.115,30.218 		"/>
		<path d="M91.119,51.802c0.482,0.036,0.98-0.142,1.471-0.211c2.047-0.288,3.088-1.399,2.996-3.2
			c-0.084-1.617-1.326-2.557-3.439-2.473c-3.36,0.134-5.312,2.238-6.569,5.063c-0.834,1.869-1.589,4-0.069,5.773
			c1.52,1.771,3.745,1.533,5.848,1.126c1.242-0.241,2.047-0.938,2.271-2.501c-0.479,0.217-0.771,0.443-1.082,0.471
			c-0.801,0.068-2.166,0.465-2.613,0.071c-0.535-0.468-0.418-1.649-0.434-2.479C89.479,52.516,89.889,51.711,91.119,51.802z
			 M91.723,48.198c0.932-0.343,1.82-0.253,1.986,0.198c0.164,0.451-0.455,1.094-1.387,1.435s-1.82,0.252-1.984-0.199
			C90.172,49.182,90.793,48.539,91.723,48.198z"/>
		<g>
			<path fill="#ED1C24" d="M20.17,50.295c0.727-0.229,1.426-0.413,2.095-0.553v-0.301c-0.766,0.166-1.472,0.365-2.095,0.563V50.295z
				"/>
			<path fill="#ED1C24" d="M28.848,49.354c-0.898-0.211-1.804-0.311-2.693-0.324v0.356c0.977,0.037,1.873,0.179,2.693,0.398V49.354z
				"/>
			<path fill="#ED1C24" d="M25.556,49.033c-0.936,0.023-1.844,0.132-2.693,0.287v0.308c0.957-0.168,1.853-0.246,2.693-0.251V49.033z
				"/>
			<path fill="#ED1C24" d="M34.524,52.945c-0.603-0.748-1.253-1.367-1.936-1.875v0.554c0.753,0.574,1.394,1.213,1.936,1.864V52.945z
				"/>
			<path fill="#ED1C24" d="M35.123,53.753v0.513c1.525,2.135,2.047,4.161,2.047,4.161h0.075
				C36.687,56.531,35.963,54.993,35.123,53.753z"/>
			<path fill="#ED1C24" d="M31.99,50.662c-0.818-0.518-1.673-0.895-2.543-1.151v0.455c0.953,0.315,1.797,0.74,2.543,1.233V50.662z"
				/>
			<path fill="#ED1C24" d="M19.572,50.212c-1.28,0.454-2.076,0.866-2.076,0.866v0.217c0.717-0.311,1.408-0.574,2.076-0.805V50.212z"
				/>
		</g>
		<g>
			<g>
				<path fill="#ED1C24" d="M73.14,64.27c0.035,0.069,0.063,0.144,0.082,0.213c0.019,0.072,0.029,0.146,0.029,0.209
					c0,0.242-0.069,0.414-0.208,0.514c-0.14,0.098-0.395,0.146-0.767,0.146c-0.035,0-0.117,0-0.247,0
					c-0.462-0.01-0.889-0.014-1.28-0.014c-0.066,0-0.178,0.002-0.334,0.006c-0.157,0.006-0.278,0.008-0.364,0.008
					c0,1.059,0.03,1.862,0.091,2.422s0.157,0.963,0.291,1.213c-0.188,0.1-0.363,0.174-0.526,0.225
					c-0.162,0.051-0.31,0.076-0.442,0.076c-0.212,0-0.357-0.055-0.438-0.161s-0.121-0.313-0.121-0.62
					c0-0.125,0.022-0.813,0.067-2.064c0.046-1.254,0.068-2.444,0.068-3.578c0-0.436-0.018-0.813-0.051-1.143
					c-0.033-0.326-0.085-0.621-0.155-0.884c0.2,0.008,0.387,0.017,0.561,0.021c0.175,0.006,0.332,0.009,0.474,0.009
					c0.454,0,1.002-0.021,1.644-0.063c0.643-0.043,1.062-0.064,1.257-0.064c0.302,0,0.513,0.037,0.635,0.105
					c0.121,0.07,0.182,0.191,0.182,0.364c0,0.117-0.021,0.242-0.062,0.375c-0.041,0.134-0.104,0.278-0.19,0.438
					c-0.169-0.099-0.41-0.17-0.723-0.217c-0.313-0.048-0.699-0.07-1.157-0.07c-0.164,0-0.36,0.004-0.587,0.011
					c-0.228,0.006-0.481,0.015-0.764,0.024l-0.006,0.828c0,0.133-0.004,0.447-0.012,0.944c-0.004,0.368-0.008,0.665-0.012,0.894
					c0.059,0.008,0.119,0.015,0.182,0.017s0.147,0.003,0.253,0.003c0.807,0,1.39-0.016,1.75-0.041
					C72.62,64.384,72.913,64.335,73.14,64.27z"/>
				<path fill="#ED1C24" d="M77.004,69.43c-0.908,0-1.648-0.279-2.22-0.839c-0.572-0.562-0.857-1.278-0.857-2.155
					c0-0.932,0.305-1.688,0.916-2.271c0.61-0.581,1.403-0.872,2.378-0.872c0.881,0,1.606,0.275,2.176,0.828s0.854,1.251,0.854,2.097
					c0,0.341-0.054,0.679-0.161,1.011s-0.254,0.617-0.438,0.854c-0.349,0.447-0.743,0.788-1.184,1.016
					C78.029,69.316,77.541,69.43,77.004,69.43z M77.075,68.585c0.635,0,1.154-0.213,1.56-0.638c0.404-0.426,0.607-0.971,0.607-1.637
					c0-0.648-0.198-1.181-0.596-1.588c-0.398-0.408-0.913-0.613-1.548-0.613c-0.646,0-1.168,0.213-1.564,0.638
					c-0.397,0.425-0.597,0.987-0.597,1.688c0,0.621,0.202,1.135,0.605,1.541C75.945,68.382,76.457,68.585,77.075,68.585z"/>
				<path fill="#ED1C24" d="M82.513,64.662c0.293-0.411,0.573-0.719,0.84-0.919c0.266-0.202,0.528-0.304,0.786-0.304
					c0.22,0,0.406,0.067,0.562,0.209c0.154,0.14,0.231,0.311,0.231,0.514c0,0.134-0.044,0.264-0.132,0.391
					c-0.088,0.129-0.221,0.254-0.396,0.379c-0.063-0.172-0.14-0.3-0.232-0.382c-0.092-0.082-0.202-0.123-0.331-0.123
					c-0.192,0-0.394,0.095-0.605,0.285c-0.211,0.188-0.419,0.463-0.622,0.817c-0.02,0.178-0.035,0.354-0.047,0.539
					c-0.012,0.182-0.018,0.356-0.018,0.531c0,0.588,0.032,1.073,0.097,1.467c0.065,0.393,0.165,0.713,0.303,0.965
					c-0.157,0.082-0.311,0.145-0.462,0.188c-0.15,0.043-0.298,0.064-0.443,0.064c-0.191,0-0.323-0.049-0.396-0.145
					c-0.073-0.098-0.109-0.289-0.109-0.578c0-0.105,0.021-0.514,0.063-1.221c0.041-0.707,0.062-1.361,0.062-1.971
					c0-0.497-0.02-0.879-0.059-1.146c-0.04-0.268-0.104-0.502-0.194-0.705c0.078-0.025,0.155-0.049,0.232-0.063
					c0.076-0.014,0.155-0.021,0.237-0.021c0.228,0,0.396,0.057,0.505,0.162c0.11,0.106,0.165,0.272,0.165,0.496
					c0,0.051-0.003,0.12-0.009,0.209C82.535,64.393,82.525,64.514,82.513,64.662z"/>
				<path fill="#ED1C24" d="M89.389,61.104c0.174-0.099,0.342-0.172,0.508-0.224c0.168-0.051,0.33-0.075,0.492-0.075
					c0.207,0,0.348,0.062,0.426,0.178c0.076,0.119,0.113,0.361,0.113,0.729c0,0.16-0.021,0.641-0.064,1.436
					C90.82,63.938,90.8,64.65,90.8,65.279c0,1.172,0.166,2,0.5,2.484c0.332,0.483,0.894,0.729,1.679,0.729
					c0.918,0,1.58-0.313,1.992-0.939c0.409-0.626,0.614-1.641,0.614-3.042c0-0.877-0.049-1.593-0.147-2.149
					c-0.101-0.555-0.25-0.957-0.449-1.201c0.174-0.117,0.33-0.205,0.475-0.266c0.145-0.06,0.271-0.088,0.393-0.088
					c0.306,0,0.515,0.158,0.625,0.479c0.109,0.317,0.168,1.05,0.168,2.192c0,2.147-0.295,3.686-0.887,4.604
					c-0.588,0.922-1.561,1.384-2.914,1.384c-1.115,0-1.922-0.287-2.412-0.861c-0.494-0.576-0.74-1.522-0.74-2.845
					c0-0.294,0.011-0.711,0.031-1.251c0.02-0.539,0.031-0.934,0.031-1.181c0-0.536-0.027-0.981-0.088-1.343
					C89.607,61.629,89.516,61.334,89.389,61.104z"/>
				<path fill="#ED1C24" d="M98.457,68.344c0.141,0.074,0.275,0.129,0.404,0.164c0.131,0.036,0.256,0.055,0.377,0.055
					c0.281,0,0.508-0.066,0.682-0.203c0.172-0.135,0.258-0.313,0.258-0.529c0-0.172-0.047-0.333-0.141-0.479
					c-0.094-0.149-0.271-0.33-0.529-0.541c-0.043-0.031-0.102-0.078-0.176-0.144c-0.662-0.548-0.992-1.033-0.992-1.456
					c0-0.172,0.033-0.345,0.1-0.52c0.066-0.172,0.164-0.336,0.293-0.491c0.246-0.295,0.535-0.521,0.867-0.675
					c0.33-0.151,0.688-0.229,1.07-0.229c0.189,0,0.332,0.036,0.43,0.106c0.101,0.072,0.146,0.18,0.146,0.313
					c0,0.066-0.018,0.146-0.053,0.238c-0.035,0.092-0.094,0.208-0.176,0.351c-0.105-0.043-0.205-0.076-0.304-0.099
					c-0.094-0.021-0.188-0.032-0.272-0.032c-0.324,0-0.588,0.08-0.789,0.238c-0.203,0.158-0.303,0.363-0.303,0.613
					c0,0.271,0.271,0.645,0.813,1.107c0.137,0.117,0.237,0.209,0.313,0.276c0.229,0.202,0.399,0.401,0.512,0.604
					c0.109,0.195,0.164,0.397,0.164,0.604c0,0.487-0.217,0.911-0.648,1.269c-0.434,0.354-0.959,0.528-1.578,0.528
					c-0.215,0-0.381-0.043-0.496-0.129s-0.172-0.207-0.172-0.364c0-0.072,0.016-0.154,0.047-0.246
					C98.336,68.587,98.387,68.477,98.457,68.344z"/>
			</g>
			<g>
				<path fill="#ED1C24" d="M73.439,64.27c0.035,0.069,0.063,0.144,0.083,0.213c0.02,0.072,0.029,0.146,0.029,0.209
					c0,0.242-0.07,0.414-0.209,0.514c-0.139,0.098-0.395,0.146-0.767,0.146c-0.035,0-0.117,0-0.246,0
					c-0.462-0.01-0.889-0.014-1.28-0.014c-0.066,0-0.179,0.002-0.335,0.006c-0.156,0.006-0.278,0.008-0.364,0.008
					c0,1.059,0.03,1.862,0.091,2.422c0.062,0.56,0.158,0.963,0.291,1.213c-0.188,0.1-0.363,0.174-0.525,0.225
					s-0.311,0.076-0.443,0.076c-0.212,0-0.357-0.055-0.438-0.161s-0.12-0.313-0.12-0.62c0-0.125,0.022-0.813,0.067-2.064
					c0.045-1.254,0.067-2.444,0.067-3.578c0-0.436-0.017-0.813-0.05-1.143c-0.033-0.328-0.085-0.621-0.155-0.884
					c0.199,0.008,0.386,0.017,0.561,0.021c0.174,0.006,0.331,0.009,0.473,0.009c0.454,0,1.002-0.021,1.645-0.063
					c0.642-0.043,1.061-0.064,1.256-0.064c0.302,0,0.514,0.037,0.635,0.105c0.121,0.07,0.182,0.191,0.182,0.364
					c0,0.117-0.021,0.242-0.062,0.375c-0.041,0.134-0.104,0.278-0.19,0.438c-0.169-0.099-0.409-0.17-0.723-0.217
					c-0.314-0.048-0.699-0.07-1.156-0.07c-0.165,0-0.36,0.004-0.588,0.011c-0.227,0.006-0.481,0.015-0.764,0.024l-0.006,0.828
					c0,0.133-0.004,0.447-0.012,0.944c-0.004,0.368-0.008,0.665-0.012,0.894c0.059,0.008,0.12,0.015,0.183,0.017
					s0.146,0.003,0.252,0.003c0.807,0,1.39-0.016,1.75-0.041C72.919,64.384,73.212,64.335,73.439,64.27z"/>
				<path fill="#ED1C24" d="M77.303,69.43c-0.908,0-1.648-0.279-2.22-0.839c-0.571-0.562-0.857-1.278-0.857-2.155
					c0-0.932,0.306-1.688,0.916-2.271c0.611-0.581,1.404-0.872,2.379-0.872c0.881,0,1.605,0.275,2.176,0.828
					c0.569,0.553,0.854,1.251,0.854,2.097c0,0.341-0.054,0.679-0.162,1.011c-0.107,0.332-0.253,0.617-0.437,0.854
					c-0.349,0.447-0.743,0.788-1.184,1.016C78.329,69.316,77.839,69.43,77.303,69.43z M77.374,68.585
					c0.635,0,1.154-0.213,1.56-0.638c0.406-0.426,0.607-0.971,0.607-1.637c0-0.648-0.198-1.181-0.596-1.588
					c-0.398-0.408-0.913-0.613-1.547-0.613c-0.646,0-1.168,0.213-1.565,0.638s-0.596,0.987-0.596,1.688
					c0,0.621,0.201,1.135,0.604,1.541C76.244,68.381,76.755,68.585,77.374,68.585z"/>
				<path fill="#ED1C24" d="M82.812,64.662c0.294-0.411,0.573-0.719,0.84-0.919c0.267-0.202,0.528-0.304,0.787-0.304
					c0.219,0,0.406,0.067,0.561,0.209c0.154,0.14,0.232,0.311,0.232,0.514c0,0.134-0.045,0.264-0.133,0.391
					c-0.088,0.129-0.22,0.254-0.396,0.379c-0.063-0.172-0.14-0.3-0.231-0.382c-0.091-0.082-0.203-0.123-0.332-0.123
					c-0.191,0-0.394,0.095-0.604,0.285c-0.212,0.188-0.419,0.463-0.623,0.817c-0.02,0.178-0.035,0.354-0.047,0.539
					c-0.012,0.182-0.018,0.356-0.018,0.531c0,0.588,0.032,1.073,0.097,1.467c0.065,0.393,0.166,0.713,0.303,0.965
					c-0.156,0.082-0.311,0.145-0.461,0.188s-0.299,0.064-0.443,0.064c-0.191,0-0.324-0.049-0.396-0.145
					c-0.072-0.098-0.108-0.289-0.108-0.578c0-0.105,0.021-0.514,0.062-1.221s0.062-1.361,0.062-1.971
					c0-0.497-0.02-0.879-0.059-1.146c-0.039-0.268-0.104-0.502-0.193-0.705c0.078-0.025,0.155-0.049,0.231-0.063
					c0.076-0.014,0.155-0.021,0.237-0.021c0.228,0,0.396,0.057,0.506,0.162c0.109,0.106,0.164,0.272,0.164,0.496
					c0,0.051-0.003,0.12-0.009,0.209C82.835,64.393,82.824,64.514,82.812,64.662z"/>
				<path fill="#ED1C24" d="M89.689,61.104c0.172-0.099,0.34-0.172,0.508-0.224c0.166-0.051,0.328-0.075,0.49-0.075
					c0.207,0,0.35,0.062,0.426,0.178c0.076,0.119,0.113,0.361,0.113,0.729c0,0.16-0.021,0.641-0.064,1.436s-0.064,1.508-0.064,2.137
					c0,1.172,0.166,2,0.5,2.484c0.332,0.483,0.896,0.729,1.68,0.729c0.916,0,1.578-0.313,1.99-0.939
					c0.41-0.625,0.617-1.641,0.617-3.041c0-0.877-0.051-1.594-0.15-2.148c-0.099-0.555-0.25-0.957-0.446-1.203
					c0.172-0.117,0.33-0.205,0.473-0.266c0.146-0.06,0.273-0.088,0.394-0.088c0.305,0,0.514,0.158,0.625,0.479
					c0.109,0.317,0.168,1.05,0.168,2.192c0,2.147-0.295,3.686-0.885,4.604c-0.588,0.922-1.563,1.386-2.914,1.386
					c-1.117,0-1.922-0.289-2.414-0.863c-0.494-0.575-0.74-1.522-0.74-2.844c0-0.293,0.01-0.711,0.031-1.25
					c0.021-0.541,0.033-0.936,0.033-1.183c0-0.536-0.029-0.981-0.091-1.342C89.907,61.63,89.814,61.334,89.689,61.104z"/>
				<path fill="#ED1C24" d="M98.756,68.344c0.141,0.074,0.275,0.129,0.404,0.164c0.131,0.036,0.256,0.055,0.377,0.055
					c0.281,0,0.508-0.066,0.682-0.203c0.172-0.135,0.258-0.313,0.258-0.529c0-0.172-0.047-0.333-0.141-0.479
					c-0.094-0.149-0.27-0.33-0.529-0.541c-0.043-0.031-0.102-0.078-0.176-0.144c-0.662-0.548-0.992-1.033-0.992-1.456
					c0-0.172,0.033-0.345,0.1-0.52c0.066-0.172,0.164-0.336,0.296-0.491c0.245-0.295,0.532-0.521,0.864-0.675
					c0.33-0.151,0.688-0.229,1.072-0.229c0.188,0,0.33,0.036,0.428,0.106c0.101,0.072,0.146,0.18,0.146,0.313
					c0,0.066-0.018,0.146-0.053,0.238c-0.035,0.092-0.094,0.208-0.176,0.351c-0.105-0.043-0.205-0.076-0.299-0.099
					c-0.099-0.021-0.188-0.032-0.277-0.032c-0.324,0-0.588,0.08-0.789,0.238s-0.303,0.363-0.303,0.613
					c0,0.271,0.271,0.645,0.813,1.107c0.14,0.117,0.24,0.209,0.313,0.276c0.229,0.202,0.399,0.401,0.512,0.604
					c0.109,0.195,0.164,0.397,0.164,0.604c0,0.487-0.217,0.911-0.648,1.269c-0.434,0.354-0.959,0.528-1.576,0.528
					c-0.217,0-0.381-0.043-0.498-0.129c-0.115-0.086-0.172-0.207-0.172-0.364c0-0.072,0.019-0.154,0.047-0.246
					C98.635,68.588,98.686,68.477,98.756,68.344z"/>
			</g>
		</g>
	</g>
</g>
<rect x="-5" y="-8.811" display="none" width="131" height="102.311"/>
<path fill="#FFFFFF" d="M36.504,0.084c1.341,1.578,2.649,3.006,3.803,4.55c0.316,0.424,0.389,1.275,0.201,1.793
	c-2.865,7.926,1.434,14.244,9.892,14.018c2.507-0.066,4.123,0.516,5.413,2.537c0.566,0.888,1.336,1.646,2.178,2.663
	c-7.648,6.619-13.664,14.473-17.755,23.739c-4.067,9.208-5.895,18.868-5.636,29.056c-2.128,0.135-4.106,0.334-6.085,0.33
	c-0.528-0.004-1.201-0.516-1.556-0.983c-1.775-2.347-3.865-4.25-6.72-5.158c-4.327-1.374-8.693,0.507-11.09,5.038
	c-0.826,1.561-1.745,2.021-3.44,2.014c-4.792-0.025-4.875,0.059-4.74-4.712c0.833-29.36,11.985-53.985,33.896-73.65
	c0.326-0.292,0.663-0.572,1.005-0.844C36.011,0.358,36.18,0.278,36.504,0.084z M32.519,76.221
	c0.333-20.062,7.839-36.969,22.396-50.6c-1.309-2.121-2.758-3.017-5.377-2.952c-8.723,0.217-13.836-5.81-12.208-13.868
	c0.529-2.62,0.179-3.418-2.253-4.975C22.007,15.794,12.724,30.202,7.446,47.152C4.47,56.713,2.907,66.486,3.103,76.438
	c2.507,0.482,4.155,0.114,5.42-2.113c1.278-2.251,3.447-3.777,6.053-4.428c5.179-1.287,9.271,0.785,12.396,4.646
	C28.586,76.534,30.276,76.531,32.519,76.221z"/>
<path opacity="0.4" fill="#FFFFFF" enable-background="new    " d="M34.817,1.316c0.326-0.292,0.664-0.572,1.006-0.844
	c0.143-0.114,0.313-0.194,0.636-0.388c1.342,1.578,2.65,3.006,3.804,4.55c0.315,0.424,0.389,1.275,0.2,1.793
	c-2.864,7.926,1.434,14.244,9.892,14.018c0.845-0.022,1.582,0.038,2.246,0.194c1.664-1.896,3.44-3.738,5.344-5.522
	c-1.31-2.121-2.758-3.017-5.379-2.952c-8.722,0.216-13.835-5.81-12.208-13.868c0.529-2.62,0.179-3.418-2.254-4.975
	c-10.091,9.245-17.916,19.95-23.392,32.153C19.922,16.734,26.616,8.678,34.817,1.316z"/>
<path fill="#FFFFFF" d="M90.208,31.146c1.024-0.579,2.507-0.526,3.776,0.456c1.268,0.984,0.766,2.342,0.35,3.608
	c-0.205,0.627-0.32,1.28-0.504,2.036c2.178-0.462,4.465-1.013,5.602,1.244c1.541,3.059-1.121,4.572-3.016,6.391
	c1.773,0.758,1.9,2.068,1.514,3.688c-0.135,0.566,0.23,1.255,0.605,1.959c-0.553,1.449-1.832,1.502-3.207,1.064
	c-1.164-0.371-1.904-1.033-1.646-2.49c0.096-0.533-0.483-1.697-0.623-1.68c-0.834,0.127-1.733,0.365-2.392,0.861
	c-0.399,0.305-0.442,1.123-0.58,1.73c-0.338,1.481-1.524,1.754-2.584,1.342c-0.609-0.236-1.341-1.453-1.22-2.07
	c0.681-3.408,1.577-6.773,2.455-10.139c0.424-1.623,1.06-3.191,1.433-4.825C90.368,33.47,90.208,32.536,90.208,31.146z
	 M91.697,44.346c2.188-0.402,3.668-1.246,3.672-3.342c0-0.414-0.246-1.094-0.527-1.182c-0.342-0.107-1.066,0.152-1.236,0.465
	C92.889,41.598,92.32,42.986,91.697,44.346z"/>
<path fill="#FFFFFF" d="M56.25,47.797c-0.065,1.27,0.932,2.42,1.835,0.994c0.958-1.512,1.474-3.287,1.976-5.006
	c0.94-3.221,1.674-6.5,2.596-9.726c0.372-1.298,1.009-2.52,1.521-3.768c-2.995-0.743-5.436,1.435-5.503,5.371
	c-0.896-0.135-2.141,0.026-2.498-0.461c-0.47-0.646-0.511-1.877-0.264-2.717c0.664-2.261,2.655-3.115,4.717-3.445
	c2.201-0.352,4.462-0.377,6.7-0.434c2.664-0.066,5.329-0.017,8.189,0.213c-0.752,0.293-1.532,0.892-2.251,0.825
	c-3.958-0.36-5.517,2.024-6.431,5.29c-0.721,2.576-1.399,5.165-2.244,7.697c-0.606,1.818-1.319,3.631-2.229,5.313
	c-1.405,2.604-3.752,3.82-6.685,3.508c-3.405,0.047-2.336-4.484-1.562-5.207c1.245-1.162,1.907-0.377,2.536-0.283
	C56.725,46.143,56.276,47.311,56.25,47.797z"/>
<path fill="#FFFFFF" d="M84.454,48.945c0.104,1.703-1.049,2.17-2.203,2.432c-1.021,0.229-2.114,0.264-3.166,0.211
	c-4.242-0.211-5.557-1.777-5.101-5.957c0.588-5.389,5.393-9.695,10.229-9.168c1.616,0.178,2.533,0.915,2.208,2.694
	c-4.095-0.369-8.129,4.479-7.154,8.524c0.345,1.426,1.4,1.848,2.696,1.756C82.752,49.383,83.528,49.139,84.454,48.945z"/>
<path fill="#FFFFFF" d="M121.189,36.181c0.629,0.272,2.102,0.343,1.817,1.217c-2.577,0.336-2.948,1.896-3.422,3.471
	c-0.64,2.143-0.862,4.389-1.293,6.58c-0.354,1.832-0.108,2.156,1.595,2.869c-0.871,1.629-2.314,1.113-3.568,0.942
	c-1.365-0.186-1.965-1.696-1.748-3.188c0.438-2.998,0.832-5.287,1.359-8.273c0.133-0.75,1.137-4.504,1.977-5.632
	c0.465-0.627,1.063-1.297,1.748-1.579c0.604-0.25,1.979-0.026,2.697,0.01l-0.568,1.883
	C121.781,34.479,121.373,35.567,121.189,36.181z"/>
<path fill="#FFFFFF" d="M67.637,36.768c1.239-0.611,3.087-0.859,4.307,0.349c0.758,0.754,0.923,2.539,0.71,3.746
	c-0.428,2.43-1.301,4.781-1.98,7.172c-0.287,1.01-0.611,2.053,1.104,2.041c-0.925,1.4-3.023,1.957-4.666,1.297
	c-1.637-0.654-1.705-2.072-1.373-3.453c0.64-2.652,1.509-5.25,2.12-7.91C68.06,39.141,67.751,38.156,67.637,36.768z"/>
<path fill="#FFFFFF" d="M71.172,35.024c-1.225-0.037-2.285-0.293-2.229-1.854c0.05-1.378,1.198-2.421,2.577-2.376
	c1.342,0.044,2.474,0.564,2.365,2.037C73.775,34.31,72.773,35.149,71.172,35.024z"/>
<polygon fill="#ED1C24" points="24.083,32.777 29.868,32.702 32.571,37.814 34.288,32.292 39.986,31.3 35.262,27.961 36.082,22.235 
	31.445,25.696 26.252,23.147 28.112,28.625 "/>
<path fill="#FFFFFF" d="M107.951,43.859c0.604,0.045,1.229-0.178,1.844-0.267c2.566-0.358,3.871-1.754,3.756-4.012
	c-0.105-2.024-1.662-3.204-4.313-3.099c-4.215,0.168-6.658,2.806-8.236,6.345c-1.045,2.344-1.992,5.016-0.088,7.237
	c1.906,2.222,4.695,1.922,7.328,1.41c1.557-0.301,2.564-1.176,2.85-3.135c-0.598,0.271-0.967,0.557-1.355,0.59
	c-1.004,0.086-2.715,0.584-3.276,0.09c-0.672-0.586-0.522-2.067-0.541-3.106C105.896,44.754,106.408,43.744,107.951,43.859z
	 M108.707,39.342c1.168-0.43,2.283-0.316,2.49,0.248c0.205,0.564-0.57,1.371-1.738,1.799s-2.281,0.314-2.486-0.25
	C106.764,40.574,107.543,39.77,108.707,39.342z"/>
<g>
	<path fill="#FFFFFF" d="M9.377,53.792c0.911-0.286,1.788-0.519,2.626-0.692v-0.377c-0.96,0.209-1.846,0.457-2.626,0.709V53.792z"/>
	<path fill="#FFFFFF" d="M20.256,52.611c-1.126-0.264-2.262-0.389-3.376-0.405v0.446c1.225,0.047,2.348,0.224,3.376,0.498V52.611z"
		/>
	<path fill="#FFFFFF" d="M16.129,52.211c-1.173,0.029-2.312,0.165-3.376,0.359v0.386c1.2-0.211,2.323-0.31,3.376-0.313V52.211z"/>
	<path fill="#FFFFFF" d="M27.371,57.114c-0.756-0.938-1.571-1.714-2.427-2.351v0.692c0.944,0.72,1.748,1.521,2.427,2.337V57.114z"/>
	<path fill="#FFFFFF" d="M28.122,58.127v0.643c1.911,2.676,2.565,5.217,2.565,5.217h0.094
		C30.082,61.609,29.174,59.682,28.122,58.127z"/>
	<path fill="#FFFFFF" d="M24.194,54.252c-1.026-0.648-2.098-1.121-3.188-1.443v0.571c1.194,0.396,2.253,0.929,3.188,1.546V54.252z"
		/>
	<path fill="#FFFFFF" d="M8.627,53.688c-1.604,0.568-2.602,1.086-2.602,1.086v0.271c0.898-0.391,1.765-0.72,2.602-1.009V53.688z"/>
</g>
<g>
	<path fill="#FFFFFF" d="M10.631,51.285c0.912-0.286,1.788-0.518,2.626-0.693v-0.377c-0.96,0.208-1.845,0.458-2.626,0.709V51.285z"
		/>
	<path fill="#FFFFFF" d="M21.509,50.104c-1.125-0.264-2.262-0.389-3.376-0.404v0.445c1.225,0.047,2.348,0.226,3.376,0.5V50.104z"/>
	<path fill="#FFFFFF" d="M17.383,49.703c-1.173,0.029-2.312,0.166-3.376,0.359v0.387c1.2-0.211,2.323-0.309,3.376-0.314V49.703z"/>
	<path fill="#FFFFFF" d="M28.624,54.607c-0.756-0.938-1.571-1.715-2.427-2.353v0.694c0.943,0.72,1.747,1.521,2.427,2.337V54.607z"/>
	<path fill="#FFFFFF" d="M29.375,55.62v0.644c1.912,2.676,2.566,5.215,2.566,5.215h0.094C31.335,59.104,30.428,57.175,29.375,55.62z
		"/>
	<path fill="#FFFFFF" d="M25.448,51.745c-1.026-0.647-2.098-1.121-3.188-1.443v0.57c1.195,0.396,2.253,0.929,3.188,1.547V51.745z"/>
	<path fill="#FFFFFF" d="M9.881,51.182c-1.604,0.568-2.602,1.086-2.602,1.086v0.271c0.898-0.391,1.765-0.721,2.602-1.01V51.182z"/>
</g>
<g>
	<path fill="#FFFFFF" d="M11.884,48.777c0.912-0.286,1.788-0.52,2.626-0.692v-0.377c-0.96,0.208-1.845,0.458-2.626,0.709V48.777z"/>
	<path fill="#FFFFFF" d="M22.763,47.598c-1.125-0.264-2.262-0.389-3.376-0.406v0.447c1.225,0.047,2.348,0.226,3.376,0.5V47.598z"/>
	<path fill="#FFFFFF" d="M18.636,47.195c-1.173,0.029-2.312,0.166-3.376,0.361v0.385c1.199-0.211,2.323-0.31,3.376-0.314V47.195z"/>
	<path fill="#FFFFFF" d="M29.877,52.102c-0.756-0.938-1.571-1.715-2.427-2.352v0.693c0.944,0.721,1.748,1.521,2.427,2.338V52.102z"
		/>
	<path fill="#FFFFFF" d="M30.628,53.111v0.644c1.912,2.677,2.566,5.218,2.566,5.218h0.094
		C32.589,56.596,31.681,54.667,30.628,53.111z"/>
	<path fill="#FFFFFF" d="M26.701,49.238c-1.025-0.648-2.097-1.121-3.188-1.443v0.57c1.195,0.396,2.253,0.928,3.188,1.546V49.238z"/>
	<path fill="#FFFFFF" d="M11.135,48.674C9.53,49.243,8.533,49.76,8.533,49.76v0.271c0.898-0.389,1.765-0.721,2.602-1.01V48.674z"/>
</g>
<g>
	<g>
		<path fill="#A7A9AC" d="M50.836,63.492c0.085,0.167,0.154,0.344,0.201,0.519s0.07,0.351,0.07,0.509
			c0,0.594-0.167,1.015-0.507,1.25c-0.342,0.237-0.963,0.359-1.872,0.359c-0.083,0-0.284,0-0.602,0
			c-1.126-0.021-2.168-0.033-3.121-0.033c-0.162,0-0.436,0.002-0.815,0.014c-0.383,0.016-0.677,0.021-0.888,0.021
			c0,2.578,0.073,4.542,0.222,5.903s0.382,2.351,0.71,2.962c-0.459,0.239-0.886,0.422-1.282,0.545
			c-0.395,0.121-0.757,0.185-1.08,0.185c-0.517,0-0.87-0.127-1.068-0.393c-0.198-0.264-0.294-0.77-0.294-1.514
			c0-0.305,0.053-1.98,0.164-5.036c0.112-3.056,0.166-5.962,0.166-8.728c0-1.058-0.043-1.984-0.123-2.783
			c-0.082-0.797-0.208-1.518-0.38-2.153c0.488,0.021,0.944,0.038,1.369,0.052c0.426,0.016,0.811,0.02,1.156,0.02
			c1.106,0,2.443-0.049,4.01-0.153s2.589-0.161,3.066-0.161c0.735,0,1.25,0.091,1.548,0.264c0.294,0.17,0.443,0.461,0.443,0.885
			c0,0.285-0.05,0.594-0.151,0.916c-0.101,0.328-0.255,0.684-0.463,1.074c-0.413-0.24-1.001-0.414-1.765-0.531
			c-0.762-0.111-1.702-0.17-2.821-0.17c-0.401,0-0.877,0.011-1.432,0.027c-0.557,0.008-1.173,0.034-1.863,0.057l-0.015,2.021
			c0,0.326-0.01,1.096-0.028,2.309c-0.01,0.895-0.02,1.623-0.029,2.178c0.142,0.018,0.289,0.031,0.444,0.039
			c0.153,0.002,0.36,0.005,0.616,0.005c1.97,0,3.39-0.038,4.267-0.099C49.567,63.77,50.282,63.652,50.836,63.492z"/>
		<path fill="#A7A9AC" d="M60.26,76.073c-2.216,0-4.019-0.681-5.416-2.044c-1.394-1.371-2.09-3.12-2.09-5.262
			c0-2.271,0.743-4.11,2.235-5.535c1.487-1.414,3.419-2.127,5.798-2.127c2.146,0,3.917,0.672,5.309,2.02
			c1.387,1.348,2.08,3.05,2.08,5.115c0,0.828-0.13,1.654-0.394,2.464c-0.26,0.81-0.62,1.504-1.067,2.077
			c-0.851,1.097-1.811,1.924-2.888,2.471C62.76,75.798,61.567,76.073,60.26,76.073z M60.431,74.016c1.551,0,2.816-0.521,3.804-1.556
			c0.987-1.04,1.481-2.369,1.481-3.991c0-1.585-0.484-2.873-1.454-3.875c-0.971-0.992-2.228-1.496-3.775-1.496
			c-1.575,0-2.848,0.522-3.811,1.559c-0.97,1.031-1.459,2.404-1.459,4.113c0,1.516,0.494,2.771,1.474,3.76
			C57.676,73.52,58.926,74.016,60.431,74.016z"/>
		<path fill="#A7A9AC" d="M73.696,64.447c0.715-1.002,1.394-1.754,2.049-2.241c0.645-0.493,1.283-0.74,1.915-0.74
			c0.535,0,0.991,0.168,1.371,0.513c0.374,0.338,0.563,0.756,0.563,1.252c0,0.326-0.11,0.643-0.324,0.951
			c-0.212,0.314-0.535,0.617-0.965,0.926c-0.152-0.42-0.342-0.729-0.565-0.93c-0.224-0.203-0.491-0.301-0.806-0.301
			c-0.467,0-0.961,0.229-1.479,0.693c-0.513,0.459-1.018,1.13-1.516,1.99c-0.049,0.435-0.084,0.867-0.114,1.315
			c-0.03,0.444-0.042,0.874-0.042,1.295c0,1.433,0.076,2.624,0.236,3.581c0.159,0.953,0.402,1.736,0.741,2.35
			c-0.384,0.201-0.76,0.354-1.128,0.457c-0.367,0.107-0.727,0.157-1.081,0.157c-0.467,0-0.79-0.118-0.968-0.353
			c-0.177-0.233-0.265-0.703-0.265-1.41c0-0.26,0.051-1.25,0.154-2.973c0.099-1.726,0.152-3.322,0.152-4.808
			c0-1.212-0.05-2.144-0.145-2.793c-0.098-0.651-0.252-1.226-0.472-1.718c0.192-0.066,0.377-0.121,0.566-0.154
			c0.184-0.031,0.377-0.051,0.577-0.051c0.556,0,0.966,0.133,1.233,0.396c0.27,0.262,0.401,0.664,0.401,1.211
			c0,0.123-0.006,0.291-0.022,0.51C73.75,63.79,73.723,64.083,73.696,64.447z"/>
		<path fill="#A7A9AC" d="M90.462,55.77c0.425-0.244,0.836-0.42,1.239-0.547c0.408-0.121,0.804-0.185,1.197-0.185
			c0.506,0,0.849,0.147,1.039,0.437c0.187,0.289,0.276,0.881,0.276,1.771c0,0.39-0.049,1.559-0.153,3.494
			c-0.107,1.941-0.156,3.682-0.156,5.214c0,2.856,0.406,4.876,1.22,6.058c0.812,1.184,2.178,1.779,4.093,1.779
			c2.238,0,3.852-0.766,4.858-2.294c1.003-1.526,1.499-4.003,1.499-7.42c0-2.136-0.117-3.882-0.362-5.24
			c-0.241-1.348-0.608-2.331-1.095-2.935c0.421-0.283,0.808-0.5,1.152-0.643c0.35-0.146,0.67-0.213,0.953-0.213
			c0.744,0,1.258,0.385,1.524,1.166c0.271,0.775,0.409,2.563,0.409,5.354c0,5.234-0.723,8.98-2.159,11.226
			c-1.431,2.249-3.806,3.376-7.11,3.376c-2.718,0-4.678-0.701-5.88-2.104c-1.205-1.401-1.805-3.713-1.805-6.935
			c0-0.717,0.024-1.733,0.075-3.05c0.049-1.318,0.08-2.277,0.08-2.879c0-1.309-0.071-2.396-0.213-3.271
			C90.996,57.048,90.771,56.329,90.462,55.77z"/>
		<path fill="#A7A9AC" d="M112.581,73.427c0.344,0.181,0.672,0.313,0.983,0.399c0.32,0.086,0.623,0.131,0.918,0.131
			c0.689,0,1.24-0.164,1.664-0.495c0.42-0.326,0.629-0.763,0.629-1.294c0-0.419-0.112-0.813-0.342-1.173
			c-0.233-0.368-0.666-0.808-1.293-1.32c-0.104-0.075-0.246-0.188-0.429-0.347c-1.614-1.335-2.421-2.52-2.421-3.551
			c0-0.42,0.084-0.84,0.241-1.264c0.166-0.416,0.401-0.816,0.717-1.199c0.601-0.717,1.306-1.264,2.114-1.642
			c0.808-0.374,1.681-0.563,2.611-0.563c0.461,0,0.81,0.088,1.045,0.265c0.244,0.175,0.358,0.435,0.358,0.767
			c0,0.16-0.038,0.355-0.126,0.58c-0.083,0.225-0.23,0.508-0.432,0.854c-0.258-0.106-0.5-0.188-0.733-0.242
			c-0.229-0.049-0.453-0.077-0.671-0.077c-0.789,0-1.434,0.195-1.923,0.58c-0.498,0.387-0.741,0.887-0.741,1.497
			c0,0.667,0.662,1.571,1.992,2.709c0.331,0.278,0.579,0.508,0.759,0.673c0.562,0.495,0.978,0.985,1.248,1.469
			c0.269,0.48,0.403,0.977,0.403,1.481c0,1.19-0.529,2.219-1.586,3.086c-1.059,0.862-2.336,1.297-3.852,1.297
			c-0.523,0-0.93-0.108-1.207-0.315c-0.285-0.209-0.419-0.506-0.419-0.89c0-0.18,0.04-0.379,0.115-0.603
			C112.285,74.021,112.404,73.752,112.581,73.427z"/>
	</g>
	<g>
		<path fill="#A7A9AC" d="M51.563,63.492c0.086,0.167,0.154,0.344,0.202,0.519c0.049,0.175,0.071,0.351,0.071,0.509
			c0,0.594-0.17,1.015-0.51,1.25c-0.339,0.237-0.963,0.359-1.87,0.359c-0.085,0-0.287,0-0.601,0
			c-1.126-0.021-2.169-0.033-3.122-0.033c-0.162,0-0.436,0.002-0.818,0.014c-0.379,0.016-0.676,0.021-0.886,0.021
			c0,2.578,0.071,4.542,0.221,5.903c0.152,1.361,0.384,2.351,0.71,2.962c-0.458,0.239-0.884,0.422-1.28,0.545
			c-0.395,0.121-0.759,0.185-1.08,0.185c-0.517,0-0.869-0.127-1.068-0.393c-0.199-0.264-0.292-0.77-0.292-1.514
			c0-0.305,0.052-1.98,0.162-5.036c0.11-3.056,0.163-5.962,0.163-8.728c0-1.058-0.041-1.984-0.123-2.783
			c-0.081-0.797-0.206-1.518-0.378-2.153c0.486,0.021,0.942,0.038,1.368,0.052c0.425,0.016,0.809,0.02,1.155,0.02
			c1.106,0,2.443-0.049,4.011-0.153c1.566-0.104,2.586-0.161,3.063-0.161c0.737,0,1.254,0.091,1.548,0.264
			c0.294,0.17,0.443,0.461,0.443,0.885c0,0.285-0.05,0.594-0.153,0.916c-0.099,0.328-0.252,0.684-0.463,1.074
			c-0.412-0.24-0.996-0.414-1.762-0.531c-0.767-0.111-1.705-0.17-2.82-0.17c-0.402,0-0.878,0.011-1.433,0.027
			c-0.555,0.008-1.173,0.034-1.864,0.057l-0.017,2.021c0,0.326-0.01,1.096-0.028,2.309c-0.01,0.895-0.02,1.623-0.029,2.178
			c0.143,0.018,0.291,0.031,0.445,0.039c0.154,0.002,0.356,0.005,0.614,0.005c1.97,0,3.392-0.038,4.269-0.099
			C50.295,63.77,51.012,63.652,51.563,63.492z"/>
		<path fill="#A7A9AC" d="M60.99,76.073c-2.216,0-4.019-0.681-5.415-2.044c-1.391-1.371-2.088-3.12-2.088-5.262
			c0-2.271,0.747-4.11,2.232-5.535c1.491-1.414,3.424-2.127,5.803-2.127c2.146,0,3.914,0.672,5.304,2.02
			c1.391,1.348,2.084,3.05,2.084,5.115c0,0.828-0.13,1.654-0.393,2.464c-0.262,0.81-0.62,1.504-1.068,2.077
			c-0.851,1.097-1.812,1.924-2.888,2.471C63.49,75.798,62.296,76.073,60.99,76.073z M61.16,74.016c1.551,0,2.816-0.521,3.808-1.556
			c0.988-1.04,1.48-2.369,1.48-3.991c0-1.585-0.485-2.873-1.456-3.875c-0.971-0.992-2.225-1.496-3.771-1.496
			c-1.577,0-2.851,0.522-3.819,1.559c-0.968,1.031-1.452,2.404-1.452,4.113c0,1.516,0.491,2.771,1.471,3.76
			C58.406,73.516,59.652,74.016,61.16,74.016z"/>
		<path fill="#A7A9AC" d="M74.421,64.447c0.718-1.002,1.4-1.754,2.048-2.241c0.655-0.493,1.293-0.74,1.923-0.74
			c0.531,0,0.988,0.168,1.367,0.513c0.374,0.338,0.566,0.756,0.566,1.252c0,0.326-0.113,0.643-0.327,0.951
			c-0.213,0.314-0.536,0.617-0.964,0.926c-0.153-0.42-0.342-0.729-0.563-0.93c-0.224-0.203-0.494-0.301-0.81-0.301
			c-0.467,0-0.961,0.229-1.474,0.693c-0.517,0.459-1.024,1.13-1.521,1.99c-0.049,0.435-0.083,0.867-0.114,1.315
			c-0.031,0.444-0.042,0.874-0.042,1.295c0,1.433,0.076,2.624,0.234,3.581c0.157,0.953,0.404,1.736,0.738,2.35
			c-0.379,0.201-0.756,0.354-1.124,0.457c-0.365,0.107-0.729,0.157-1.08,0.157c-0.467,0-0.79-0.118-0.965-0.353
			c-0.177-0.233-0.264-0.703-0.264-1.41c0-0.26,0.051-1.25,0.154-2.973c0.098-1.726,0.147-3.322,0.147-4.808
			c0-1.212-0.045-2.144-0.14-2.793c-0.095-0.651-0.254-1.226-0.473-1.718c0.192-0.066,0.378-0.121,0.564-0.154
			c0.187-0.031,0.376-0.051,0.578-0.051c0.558,0,0.969,0.133,1.235,0.396c0.266,0.262,0.399,0.664,0.399,1.211
			c0,0.123-0.004,0.291-0.023,0.51C74.482,63.79,74.453,64.083,74.421,64.447z"/>
		<path fill="#A7A9AC" d="M91.193,55.77c0.422-0.244,0.834-0.42,1.24-0.547c0.404-0.121,0.801-0.185,1.196-0.185
			c0.507,0,0.853,0.147,1.038,0.437c0.184,0.289,0.277,0.881,0.277,1.771c0,0.39-0.055,1.559-0.157,3.494
			c-0.106,1.941-0.158,3.682-0.158,5.214c0,2.856,0.406,4.876,1.22,6.058c0.809,1.184,2.182,1.779,4.096,1.779
			c2.232,0,3.85-0.766,4.854-2.294c1.002-1.526,1.503-4.003,1.503-7.42c0-2.136-0.118-3.882-0.36-5.24
			c-0.244-1.348-0.609-2.331-1.096-2.935c0.416-0.283,0.803-0.5,1.149-0.643c0.353-0.146,0.669-0.213,0.957-0.213
			c0.741,0,1.255,0.385,1.524,1.166c0.268,0.775,0.405,2.563,0.405,5.354c0,5.234-0.719,8.98-2.153,11.226
			c-1.433,2.249-3.811,3.376-7.104,3.376c-2.726,0-4.69-0.701-5.89-2.104c-1.205-1.401-1.807-3.713-1.807-6.935
			c0-0.717,0.026-1.733,0.074-3.05c0.053-1.318,0.086-2.277,0.086-2.879c0-1.309-0.072-2.396-0.217-3.271
			C91.729,57.048,91.505,56.329,91.193,55.77z"/>
		<path fill="#A7A9AC" d="M113.313,73.427c0.34,0.181,0.666,0.313,0.981,0.399c0.319,0.086,0.622,0.131,0.918,0.131
			c0.69,0,1.24-0.164,1.668-0.495c0.416-0.326,0.625-0.763,0.625-1.294c0-0.419-0.116-0.813-0.345-1.173
			c-0.227-0.368-0.658-0.808-1.289-1.32c-0.104-0.075-0.25-0.188-0.43-0.347c-1.615-1.335-2.418-2.52-2.418-3.551
			c0-0.42,0.076-0.84,0.242-1.264c0.162-0.416,0.397-0.816,0.715-1.199c0.603-0.717,1.302-1.264,2.117-1.642
			c0.799-0.374,1.674-0.563,2.61-0.563c0.462,0,0.808,0.088,1.042,0.265c0.243,0.175,0.359,0.435,0.359,0.767
			c0,0.16-0.045,0.355-0.127,0.58c-0.088,0.225-0.229,0.508-0.432,0.854c-0.259-0.106-0.502-0.188-0.729-0.242
			c-0.234-0.049-0.459-0.077-0.674-0.077c-0.793,0-1.437,0.195-1.926,0.58c-0.49,0.387-0.74,0.887-0.74,1.497
			c0,0.667,0.662,1.571,1.988,2.709c0.338,0.278,0.588,0.508,0.758,0.673c0.567,0.495,0.981,0.985,1.25,1.469
			c0.268,0.48,0.403,0.977,0.403,1.481c0,1.19-0.53,2.219-1.583,3.086c-1.059,0.862-2.338,1.297-3.844,1.297
			c-0.525,0-0.93-0.108-1.217-0.315c-0.279-0.209-0.415-0.506-0.415-0.89c0-0.18,0.036-0.379,0.11-0.603
			C113.009,74.021,113.135,73.752,113.313,73.427z"/>
	</g>
</g>
<g>
	<path fill="#FFFFFF" d="M1.335,89.3l0.359-0.753c0.505,0.454,1.369,0.781,2.242,0.781c1.174,0,1.679-0.453,1.679-1.041
		c0-1.648-4.115-0.607-4.115-3.115c0-1.041,0.815-1.929,2.601-1.929c0.796,0,1.621,0.212,2.184,0.598l-0.32,0.771
		c-0.592-0.375-1.261-0.549-1.863-0.549c-1.155,0-1.65,0.481-1.65,1.07c0,1.648,4.115,0.617,4.115,3.096
		c0,1.031-0.835,1.92-2.63,1.92C2.897,90.148,1.878,89.801,1.335,89.3z"/>
	<path fill="#FFFFFF" d="M10.114,83.378c0-0.337,0.271-0.606,0.631-0.606c0.359,0,0.631,0.261,0.631,0.588
		c0,0.348-0.262,0.617-0.631,0.617C10.385,83.977,10.114,83.716,10.114,83.378z M10.279,84.96h0.932v5.11h-0.932V84.96z"/>
	<path fill="#FFFFFF" d="M20.297,87.13v2.94h-0.932v-2.836c0-1.002-0.505-1.493-1.388-1.493c-0.99,0-1.63,0.588-1.63,1.696v2.633
		h-0.932v-5.11h0.893v0.771c0.378-0.521,1.039-0.818,1.854-0.818C19.414,84.912,20.297,85.625,20.297,87.13z"/>
	<path fill="#FFFFFF" d="M24.01,87.516c0-1.522,1.135-2.604,2.717-2.604c0.922,0,1.688,0.376,2.096,1.089l-0.708,0.454
		c-0.33-0.502-0.834-0.732-1.397-0.732c-1.009,0-1.766,0.703-1.766,1.793c0,1.108,0.757,1.803,1.766,1.803
		c0.563,0,1.067-0.23,1.397-0.731l0.708,0.442c-0.408,0.715-1.174,1.101-2.096,1.101C25.146,90.129,24.01,89.039,24.01,87.516z"/>
	<path fill="#FFFFFF" d="M37.01,87.824h-4.173c0.116,0.896,0.844,1.494,1.863,1.494c0.602,0,1.106-0.202,1.485-0.617l0.514,0.599
		c-0.466,0.54-1.174,0.829-2.028,0.829c-1.66,0-2.766-1.09-2.766-2.613c0-1.515,1.097-2.604,2.582-2.604
		c1.484,0,2.542,1.061,2.542,2.632C37.029,87.621,37.02,87.736,37.01,87.824z M32.837,87.158h3.299
		c-0.097-0.857-0.747-1.467-1.649-1.467C33.594,85.691,32.934,86.291,32.837,87.158z"/>
	<path fill="#FFFFFF" d="M50.149,89.232v0.838h-4.881v-0.655l2.766-2.651c0.718-0.693,0.854-1.119,0.854-1.543
		c0-0.693-0.494-1.119-1.445-1.119c-0.729,0-1.32,0.231-1.737,0.733l-0.66-0.569c0.524-0.646,1.427-1.021,2.484-1.021
		c1.417,0,2.329,0.724,2.329,1.881c0,0.654-0.194,1.244-1.116,2.121l-2.076,1.986H50.149L50.149,89.232z"/>
	<path fill="#FFFFFF" d="M53.347,86.695c0-2.198,1.184-3.452,2.775-3.452c1.582,0,2.766,1.254,2.766,3.452
		c0,2.199-1.184,3.453-2.766,3.453C54.531,90.148,53.347,88.895,53.347,86.695z M57.918,86.695c0-1.727-0.738-2.594-1.796-2.594
		c-1.067,0-1.805,0.867-1.805,2.594s0.737,2.595,1.805,2.595C57.18,89.29,57.918,88.422,57.918,86.695z"/>
	<path fill="#FFFFFF" d="M62.252,86.695c0-2.198,1.184-3.452,2.775-3.452c1.582,0,2.766,1.254,2.766,3.452
		c0,2.199-1.184,3.453-2.766,3.453C63.436,90.148,62.252,88.895,62.252,86.695z M66.824,86.695c0-1.727-0.738-2.594-1.796-2.594
		c-1.067,0-1.805,0.867-1.805,2.594s0.737,2.595,1.805,2.595C66.085,89.29,66.824,88.422,66.824,86.695z"/>
	<path fill="#FFFFFF" d="M75.903,89.232v0.838h-4.881v-0.655l2.766-2.651c0.718-0.693,0.854-1.119,0.854-1.543
		c0-0.693-0.494-1.119-1.445-1.119c-0.729,0-1.32,0.231-1.737,0.733l-0.66-0.569c0.524-0.646,1.427-1.021,2.484-1.021
		c1.417,0,2.329,0.724,2.329,1.881c0,0.654-0.194,1.244-1.116,2.121l-2.076,1.986H75.903L75.903,89.232z"/>
	<path fill="#FFFFFF" d="M84.257,87.023h2.611v0.801h-2.611V87.023z"/>
	<path fill="#FFFFFF" d="M94.966,89.232v0.838h-4.881v-0.655l2.767-2.651c0.717-0.693,0.854-1.119,0.854-1.543
		c0-0.693-0.494-1.119-1.445-1.119c-0.729,0-1.32,0.231-1.736,0.733l-0.66-0.569c0.523-0.646,1.427-1.021,2.484-1.021
		c1.416,0,2.328,0.724,2.328,1.881c0,0.654-0.193,1.244-1.115,2.121l-2.076,1.986H94.966L94.966,89.232z"/>
	<path fill="#FFFFFF" d="M98.164,86.695c0-2.198,1.184-3.452,2.775-3.452c1.582,0,2.766,1.254,2.766,3.452
		c0,2.199-1.184,3.453-2.766,3.453C99.348,90.148,98.164,88.895,98.164,86.695z M102.734,86.695c0-1.727-0.737-2.594-1.795-2.594
		c-1.067,0-1.806,0.867-1.806,2.594s0.737,2.595,1.806,2.595C101.997,89.29,102.734,88.422,102.734,86.695z"/>
	<path fill="#FFFFFF" d="M109.146,83.32v6.75h-0.961v-5.911h-1.533V83.32H109.146z"/>
	<path fill="#FFFFFF" d="M118.116,86.609c0,2.305-1.31,3.539-3.212,3.539c-0.641,0-1.252-0.127-1.688-0.396L113.585,89
		c0.358,0.23,0.813,0.316,1.31,0.316c1.379,0,2.252-0.856,2.252-2.545v-0.24c-0.397,0.588-1.115,0.887-1.961,0.887
		c-1.349,0-2.318-0.801-2.318-2.044c0-1.304,1.048-2.132,2.396-2.132C117.088,83.243,118.116,84.458,118.116,86.609z
		 M116.923,85.326c0-0.694-0.563-1.303-1.62-1.303c-0.884,0-1.494,0.512-1.494,1.313c0,0.791,0.592,1.303,1.543,1.303
		C116.282,86.639,116.923,86.068,116.923,85.326z"/>
</g>
</svg>
